<svg width="20" height="14" viewBox="0 0 20 14" fill="none" xmlns="http://www.w3.org/2000/svg">
<path d="M18.0759 13.0216C17.9819 13.0386 17.8857 13.0386 17.7917 13.0216C17.5613 12.9479 17.3693 12.7861 17.2577 12.5714C17.1461 12.3568 17.1239 12.1067 17.1959 11.8758C17.5517 10.7457 17.6364 9.54775 17.4431 8.37888C17.2498 7.21 16.7839 6.10309 16.0832 5.14778C15.3824 4.19248 14.4666 3.41563 13.4097 2.88017C12.3529 2.3447 11.1848 2.06567 10 2.06567C8.81528 2.06567 7.64718 2.3447 6.59034 2.88017C5.5335 3.41563 4.61763 4.19248 3.9169 5.14778C3.21617 6.10309 2.75028 7.21 2.55697 8.37888C2.36365 9.54775 2.44835 10.7457 2.8042 11.8758C2.84031 11.9907 2.85343 12.1117 2.8428 12.2317C2.83217 12.3517 2.798 12.4685 2.74225 12.5753C2.68649 12.6822 2.61024 12.777 2.51785 12.8543C2.42546 12.9317 2.31874 12.9901 2.20378 13.0262C1.9716 13.0991 1.71997 13.0768 1.50422 12.9642C1.28848 12.8516 1.1263 12.6579 1.05336 12.4258C0.612296 11.0213 0.508057 9.53281 0.749081 8.08062C0.990105 6.62843 1.56962 5.25338 2.44073 4.06674C3.31185 2.8801 4.45008 1.91521 5.76334 1.25014C7.07659 0.58508 8.52797 0.238525 10 0.238525C11.4721 0.238525 12.9235 0.58508 14.2367 1.25014C15.55 1.91521 16.6882 2.8801 17.5593 4.06674C18.4304 5.25338 19.01 6.62843 19.251 8.08062C19.492 9.53281 19.3878 11.0213 18.9467 12.4258C18.8806 12.6027 18.7615 12.7549 18.6056 12.8615C18.4497 12.9682 18.2647 13.0241 18.0759 13.0216Z" fill="#A8A8A8"/>
<path d="M18.0758 13.0217H1.92417C1.68106 13.0217 1.4479 12.9252 1.27599 12.7533C1.10408 12.5814 1.00751 12.3482 1.00751 12.1051C1.00751 11.862 1.10408 11.6288 1.27599 11.4569C1.4479 11.285 1.68106 11.1884 1.92417 11.1884H18.0758C18.319 11.1884 18.5521 11.285 18.724 11.4569C18.8959 11.6288 18.9925 11.862 18.9925 12.1051C18.9925 12.3482 18.8959 12.5814 18.724 12.7533C18.5521 12.9252 18.319 13.0217 18.0758 13.0217Z" fill="#A8A8A8"/>
<path d="M10 10.4824C9.87938 10.4831 9.75979 10.46 9.6481 10.4144C9.53642 10.3688 9.43484 10.3016 9.34918 10.2166C9.26326 10.1314 9.19507 10.03 9.14853 9.91829C9.10199 9.80659 9.07803 9.68677 9.07803 9.56576C9.07803 9.44475 9.10199 9.32494 9.14853 9.21323C9.19507 9.10153 9.26326 9.00015 9.34918 8.91493L12.75 5.53243C12.9218 5.3617 13.1541 5.26587 13.3963 5.26587C13.6384 5.26587 13.8708 5.3617 14.0425 5.53243C14.1284 5.61764 14.1966 5.71903 14.2432 5.83073C14.2897 5.94244 14.3137 6.06225 14.3137 6.18326C14.3137 6.30427 14.2897 6.42409 14.2432 6.53579C14.1966 6.6475 14.1284 6.74888 14.0425 6.8341L10.66 10.2166C10.5733 10.3027 10.4702 10.3705 10.3569 10.4162C10.2435 10.4618 10.1222 10.4843 10 10.4824Z" fill="#A8A8A8"/>
</svg>
